<svg width="256" height="149" viewBox="0 0 256 149" fill="none" xmlns="http://www.w3.org/2000/svg">
<path d="M0 0H256V99C256 112.261 250.732 124.979 241.355 134.355C231.979 143.732 219.261 149 206 149H50C36.7392 149 24.0215 143.732 14.6447 134.355C5.26784 124.979 0 112.261 0 99L0 0Z" fill="#E0B973"/>
<path d="M87.605 93.245C88.235 93.245 88.235 93.26 88.235 93.68V95.84C88.235 97.235 88.16 97.385 87.47 97.475L87.14 97.52C87.02 97.61 87.02 97.955 87.14 98.045C87.86 98.015 88.595 98 89.345 98C90.035 98 90.77 98.015 91.52 98.045C91.64 97.955 91.64 97.61 91.52 97.52L91.16 97.46C90.47 97.34 90.38 97.235 90.38 95.84V90.26C90.38 88.865 90.47 88.73 91.16 88.625L91.46 88.58C91.58 88.49 91.58 88.145 91.46 88.055C90.77 88.085 90.08 88.1 89.345 88.1C88.625 88.1 87.89 88.085 87.065 88.055C86.945 88.145 86.945 88.49 87.065 88.58L87.47 88.64C88.16 88.745 88.235 88.865 88.235 90.26V92C88.235 92.435 88.235 92.45 87.605 92.45H84.485C83.87 92.45 83.855 92.435 83.855 92V90.26C83.855 88.865 83.945 88.715 84.59 88.625L84.905 88.58C85.025 88.49 85.025 88.145 84.905 88.055C84.245 88.085 83.495 88.1 82.82 88.1C82.1 88.1 81.32 88.085 80.585 88.055C80.465 88.145 80.465 88.49 80.585 88.58L80.945 88.625C81.635 88.715 81.71 88.865 81.71 90.26V95.84C81.71 97.235 81.635 97.385 80.945 97.475L80.585 97.52C80.465 97.61 80.465 97.955 80.585 98.045C81.35 98.015 82.1 98 82.82 98C83.495 98 84.245 98.015 85.1 98.045C85.22 97.955 85.22 97.61 85.1 97.52L84.62 97.46C83.945 97.37 83.855 97.235 83.855 95.84V93.68C83.855 93.26 83.87 93.245 84.485 93.245H87.605ZM107.04 87.86C103.905 87.86 101.685 90.155 101.685 93.125C101.685 96.26 103.875 98.24 106.89 98.24C110.115 98.24 112.305 96.275 112.305 93.005C112.305 89.96 110.16 87.86 107.04 87.86ZM109.905 93.2C109.905 95.63 109.14 97.55 107.175 97.55C104.73 97.55 104.085 94.61 104.085 92.78C104.085 90.275 105.075 88.55 106.92 88.55C108.78 88.55 109.905 90.635 109.905 93.2ZM125.277 95.84C125.277 97.235 125.187 97.37 124.512 97.445L123.837 97.52C123.717 97.61 123.717 97.955 123.837 98.045C124.887 98.015 125.667 98 126.387 98C127.062 98 127.812 98.015 128.787 98.045C128.892 97.955 128.892 97.61 128.787 97.52L128.187 97.445C127.512 97.355 127.422 97.235 127.422 95.84V89.225C127.422 88.835 127.467 88.79 127.827 88.79H128.727C129.852 88.79 130.062 89.495 130.317 90.455C130.392 90.575 130.797 90.545 130.872 90.41C130.842 89.555 130.947 88.34 131.097 87.83C131.067 87.785 130.962 87.725 130.872 87.725C130.782 87.725 130.737 87.74 130.677 87.77C130.542 88.085 130.317 88.1 129.327 88.1H123.747C122.607 88.1 122.562 88.04 122.487 87.785C122.427 87.74 122.352 87.725 122.277 87.725C122.202 87.725 122.127 87.755 122.067 87.8C121.962 88.385 121.887 89.315 121.572 90.35C121.662 90.545 121.947 90.575 122.127 90.485C122.577 89.39 122.892 88.79 123.987 88.79H124.917C125.277 88.79 125.277 88.865 125.277 89.225V95.84ZM143.975 89.375C143.975 88.82 143.975 88.79 144.47 88.79H145.67C146.405 88.79 146.855 88.97 147.14 89.255C147.335 89.465 147.545 89.915 147.71 90.44C147.86 90.575 148.205 90.545 148.265 90.38C148.19 89.375 148.085 88.295 148.07 88.055C147.875 88.085 147.02 88.1 146.06 88.1H142.88C142.16 88.1 141.425 88.085 140.72 88.055C140.57 88.145 140.555 88.49 140.69 88.58L141.065 88.655C141.74 88.79 141.83 88.88 141.83 90.245V95.84C141.83 97.22 141.74 97.31 141.065 97.415L140.36 97.52C140.24 97.595 140.24 97.955 140.36 98.045C141.485 98.015 142.22 98 142.94 98H144.89C146.12 98 147.56 98.015 148.355 98.045C148.565 97.64 148.925 96.425 148.985 95.645C148.925 95.465 148.55 95.405 148.43 95.57C147.605 97.265 147.095 97.31 145.79 97.31C144.695 97.31 144.41 97.19 144.215 96.92C144.035 96.665 143.975 96.185 143.975 95.495V93.71C143.975 93.26 143.99 93.245 144.395 93.245H145.43C146.21 93.245 146.39 93.365 146.54 94.085L146.615 94.46C146.72 94.595 147.095 94.58 147.17 94.445C147.14 93.965 147.125 93.425 147.125 92.855C147.125 92.285 147.14 91.745 147.17 91.265C147.095 91.13 146.72 91.13 146.615 91.25L146.54 91.625C146.39 92.345 146.21 92.45 145.43 92.45H144.395C143.99 92.45 143.975 92.42 143.975 92V89.375ZM161.867 90.26C161.867 88.865 161.957 88.745 162.632 88.64L163.022 88.58C163.142 88.49 163.142 88.145 163.022 88.055C162.272 88.085 161.522 88.1 160.802 88.1C160.082 88.1 159.332 88.085 158.552 88.055C158.372 88.145 158.372 88.49 158.522 88.58L158.957 88.64C159.632 88.73 159.722 88.865 159.722 90.26V95.84C159.722 97.235 159.632 97.355 158.957 97.445L158.387 97.52C158.267 97.61 158.297 97.955 158.432 98.045C159.362 98.015 160.112 98 160.802 98H162.812C164.042 98 165.482 98.015 166.277 98.045C166.487 97.64 166.847 96.395 166.922 95.615C166.817 95.435 166.472 95.375 166.352 95.525C165.467 97.265 165.047 97.31 163.682 97.31C162.587 97.31 162.317 97.19 162.122 96.935C161.927 96.695 161.867 96.215 161.867 95.51V90.26ZM182.941 95.195C182.941 93.545 181.756 92.675 180.826 92.18L179.836 91.655C179.086 91.265 178.471 90.635 178.471 89.945C178.471 89.195 179.011 88.55 180.001 88.55C181.081 88.55 181.726 89.645 181.981 90.41C182.116 90.56 182.491 90.545 182.566 90.365C182.566 89.36 182.416 88.55 182.296 88.22C182.116 88.19 181.981 88.16 181.786 88.1C181.186 87.92 180.571 87.86 180.076 87.86C177.901 87.86 176.581 89.03 176.596 90.725C176.596 92.21 177.781 93.11 178.861 93.65C179.761 94.1 180.901 94.82 180.901 96.035C180.901 96.785 180.391 97.55 179.281 97.55C178.006 97.55 177.001 96.17 176.701 95.195C176.581 95.03 176.236 95.045 176.131 95.24C176.131 96.26 176.326 97.34 176.611 97.67C176.926 97.85 177.781 98.24 179.161 98.24C181.426 98.24 182.941 97.04 182.941 95.195Z" fill="#14274A"/>
<path d="M51.28 56.36C51.28 52.64 51.52 52.32 53.32 52.04L54.36 51.88C54.68 51.64 54.68 50.72 54.36 50.48C52.36 50.56 50.36 50.6 48.44 50.6C46.52 50.6 44.52 50.56 42.44 50.48C41.96 50.72 41.96 51.64 42.36 51.88L43.52 52.04C45.32 52.28 45.56 52.64 45.56 56.36V71.24C45.56 74.96 45.32 75.28 43.52 75.52L42 75.72C41.68 75.96 41.76 76.88 42.12 77.12C44.6 77.04 46.6 77 48.44 77H53.8C57.08 77 60.92 77.04 63.04 77.12C63.6 76.04 64.56 72.72 64.76 70.64C64.48 70.16 63.56 70 63.24 70.4C60.88 75.04 59.76 75.16 56.12 75.16C53.2 75.16 52.48 74.84 51.96 74.16C51.44 73.52 51.28 72.24 51.28 70.36V56.36ZM73.3131 66.36C73.3131 70.72 74.1931 73.68 76.2731 75.4C78.4331 77.16 81.1531 77.64 84.1931 77.64C87.4331 77.64 90.3531 76.64 92.1131 74.76C94.3131 72.32 94.6731 68.88 94.6731 65.12V60.64C94.6731 57.4 94.8331 54.36 95.2731 53.32C95.6331 52.48 96.3931 52.24 97.4331 52L98.1531 51.84C98.4731 51.52 98.3931 50.72 98.1531 50.48C96.6331 50.56 95.1531 50.6 93.6731 50.6C92.0331 50.6 90.4731 50.56 88.3131 50.48C88.0731 50.72 87.9931 51.52 88.3131 51.84L89.3931 52.04C90.4731 52.24 91.3531 52.48 91.7131 53.32C92.1531 54.36 92.3131 57.4 92.3131 60.64V65.48C92.3131 70.96 90.7531 75.44 85.6331 75.44C79.5531 75.44 79.0331 70.28 79.0331 65.6V56.36C79.0331 52.64 79.2731 52.32 81.0731 52L82.0331 51.84C82.3531 51.6 82.3531 50.72 82.0331 50.48C80.1131 50.56 78.1531 50.6 76.1931 50.6C74.2731 50.6 72.2731 50.56 70.3531 50.48C69.9131 50.72 69.9531 51.6 70.2731 51.84L71.2731 52.04C73.0731 52.4 73.3131 52.64 73.3131 56.36V66.36ZM104.082 75.8C103.722 76.04 103.842 76.92 104.242 77.12C105.443 77.04 107.123 77 108.443 77C110.123 77 111.923 77.04 113.683 77.12C114.123 76.96 114.163 76 113.803 75.72L112.763 75.6C111.923 75.52 111.483 75.32 111.483 75.08C111.483 74.84 111.563 74.56 111.843 74C113.163 71.48 115.043 68.44 116.603 66.16C117.203 66.92 120.243 71.6 120.843 72.68C121.843 74.36 122.003 74.72 122.003 75.04C122.003 75.28 121.523 75.48 120.523 75.6L119.443 75.72C119.043 75.92 119.203 76.96 119.563 77.12C121.723 77.04 123.523 77 126.283 77C129.523 77 130.763 77.04 132.523 77.12C132.923 76.84 132.923 76 132.643 75.72L131.403 75.56C129.883 75.36 128.883 74.8 127.483 72.68C126.043 70.52 124.083 67.52 121.083 62.88C120.683 62.28 120.523 61.84 120.523 61.64C120.523 61.44 120.923 60.84 121.323 60.28C123.203 57.72 124.963 55.08 126.883 53.12C127.603 52.4 128.323 52.24 129.163 52.12L130.843 51.88C131.123 51.52 131.083 50.68 130.683 50.48C129.403 50.56 127.763 50.6 125.843 50.6C123.963 50.6 122.683 50.56 121.443 50.48C121.003 50.68 121.003 51.6 121.323 51.88L122.923 52.16C123.443 52.24 123.723 52.44 123.723 52.56C123.723 52.76 123.723 53.04 123.283 53.76C122.043 55.88 120.723 57.84 119.243 60.08C118.003 58.28 116.563 56.08 115.483 54.2C115.003 53.36 114.842 53 114.842 52.64C114.842 52.36 115.563 52.16 116.203 52.04L117.083 51.88C117.363 51.56 117.363 50.68 116.923 50.48C115.683 50.56 114.083 50.6 110.843 50.6C108.403 50.6 105.882 50.56 104.603 50.48C104.202 50.72 104.202 51.56 104.562 51.88L105.243 52C107.043 52.32 107.883 52.84 108.803 54.16C110.683 56.84 113.203 60.8 114.523 62.76C115.043 63.48 115.243 64 115.243 64.16C115.243 64.4 115.043 64.88 114.683 65.4C112.963 67.96 110.803 71.08 109.643 72.6C108.323 74.4 107.403 75.36 105.003 75.68L104.082 75.8ZM141.524 66.36C141.524 70.72 142.404 73.68 144.484 75.4C146.644 77.16 149.364 77.64 152.404 77.64C155.644 77.64 158.564 76.64 160.324 74.76C162.524 72.32 162.884 68.88 162.884 65.12V60.64C162.884 57.4 163.044 54.36 163.484 53.32C163.844 52.48 164.604 52.24 165.644 52L166.364 51.84C166.684 51.52 166.604 50.72 166.364 50.48C164.844 50.56 163.364 50.6 161.884 50.6C160.244 50.6 158.684 50.56 156.524 50.48C156.284 50.72 156.204 51.52 156.524 51.84L157.604 52.04C158.684 52.24 159.564 52.48 159.924 53.32C160.364 54.36 160.524 57.4 160.524 60.64V65.48C160.524 70.96 158.964 75.44 153.844 75.44C147.764 75.44 147.244 70.28 147.244 65.6V56.36C147.244 52.64 147.484 52.32 149.284 52L150.244 51.84C150.564 51.6 150.564 50.72 150.244 50.48C148.324 50.56 146.364 50.6 144.404 50.6C142.484 50.6 140.484 50.56 138.564 50.48C138.124 50.72 138.164 51.6 138.484 51.84L139.484 52.04C141.284 52.4 141.524 52.64 141.524 56.36V66.36ZM177.333 71.24C177.333 74.92 177.093 75.2 175.293 75.52L174.213 75.72C173.893 75.92 173.893 76.88 174.213 77.12C176.293 77.04 178.053 77 180.053 77C181.973 77 183.813 77.04 185.933 77.12C186.213 76.88 186.213 75.92 185.933 75.72L184.853 75.52C183.053 75.2 182.813 74.92 182.813 71.24V66.32C182.813 65.52 182.893 65.44 184.293 65.44C185.293 65.44 185.933 65.76 186.413 66.84C187.333 68.96 188.253 70.92 189.533 73.04C191.293 75.92 193.613 77.24 197.293 77.24C198.533 77.24 199.813 77.16 200.453 76.88C200.653 76.64 200.653 76.04 200.293 75.84C199.693 75.8 198.653 75.56 197.613 74.72C195.693 73.08 194.053 70.08 191.413 64.72C191.213 64.28 191.213 64.04 191.613 63.84C193.453 62.92 195.853 61.4 195.853 57.84C195.853 55.28 194.653 53.28 192.333 51.92C190.813 51 187.893 50.48 184.493 50.48C180.693 50.48 177.573 50.64 174.573 50.84C174.093 51.04 174.093 52.04 174.493 52.24L175.573 52.4C177.253 52.64 177.333 53.08 177.333 57.08V71.24ZM182.813 54.36C182.813 52.44 182.893 52.32 184.533 52.32C187.653 52.32 189.773 54.64 189.773 58.24C189.773 60.6 189.013 61.88 188.333 62.56C187.573 63.32 186.733 63.68 185.293 63.68C182.933 63.68 182.813 63.56 182.813 62.16V54.36ZM218.493 68.44C218.493 66.16 218.773 65.16 219.813 63.28L222.333 58.72C224.253 55.24 225.213 53.8 225.813 53.04C226.253 52.48 227.173 52.2 227.893 52.08L228.933 51.88C229.253 51.6 229.253 50.64 228.773 50.48C227.613 50.56 226.373 50.6 224.853 50.6C223.413 50.6 221.973 50.56 220.373 50.48C219.973 50.68 220.013 51.68 220.333 51.88L221.093 52.04C222.053 52.2 222.693 52.44 222.693 52.68C222.693 53.16 222.213 54.36 220.773 57.2C219.733 59.24 218.493 61.84 217.333 63.8C216.853 62.8 215.933 60.96 215.333 59.64L213.453 55.36C212.613 53.48 212.413 52.88 212.413 52.56C212.413 52.52 212.653 52.36 213.373 52.2L214.733 51.88C215.093 51.56 215.013 50.64 214.653 50.48C213.293 50.56 211.253 50.6 208.812 50.6C206.452 50.6 204.973 50.56 203.172 50.48C202.692 50.6 202.652 51.56 203.012 51.88L204.373 52.12C205.773 52.36 206.133 53 206.933 54.64L211.693 64.48C212.733 66.6 212.773 67.24 212.773 69.24V71.24C212.773 74.96 212.533 75.24 210.733 75.52L209.373 75.72C209.053 75.96 209.053 76.88 209.373 77.12C211.733 77.04 213.733 77 215.653 77C217.573 77 219.533 77.04 222.133 77.12C222.413 76.88 222.413 75.96 222.133 75.72L220.533 75.52C218.733 75.28 218.493 74.96 218.493 71.24V68.44Z" fill="#14274A"/>
</svg>
